<svg width="40" height="37" viewBox="0 0 40 37" fill="none" xmlns="http://www.w3.org/2000/svg">
<mask id="path-1-outside-1" maskUnits="userSpaceOnUse" x="-0.38092" y="0" width="40" height="37" fill="black">
<rect fill="white" x="-0.38092" width="40" height="37"/>
<path fill-rule="evenodd" clip-rule="evenodd" d="M37.6191 15.5595L32.7619 11.9167V4.42857H28.1072V8.27381L19.8096 2L2.00003 15.5595L3.01193 16.7738L4.0238 16.0058V35.5952L4.02382 36L34.0919 36L35.5953 36V34.7857V15.9565L36.6072 16.7738L37.6191 15.5595ZM5.5314 34.7857L5.63531 14.7826L19.8096 4.02381L29.7262 11.5119V6.25H31.1429L31.3453 12.5238L33.9829 14.6542L34.0857 34.7857H5.5314Z"/>
</mask>
<g filter="url(#filter0_i)">
<path fill-rule="evenodd" clip-rule="evenodd" d="M37.6191 15.5595L32.7619 11.9167V4.42857H28.1072V8.27381L19.8096 2L2.00003 15.5595L3.01193 16.7738L4.0238 16.0058V35.5952L4.02382 36L34.0919 36L35.5953 36V34.7857V15.9565L36.6072 16.7738L37.6191 15.5595ZM5.5314 34.7857L5.63531 14.7826L19.8096 4.02381L29.7262 11.5119V6.25H31.1429L31.3453 12.5238L33.9829 14.6542L34.0857 34.7857H5.5314Z" fill="url(#paint0_linear)"/>
</g>
<path d="M32.7619 11.9167L32.1619 12.7167L31.7619 12.4167V11.9167H32.7619ZM37.6191 15.5595L38.2191 14.7595L39.0612 15.3911L38.3873 16.1997L37.6191 15.5595ZM32.7619 4.42857V3.42857H33.7619V4.42857H32.7619ZM28.1072 4.42857H27.1072V3.42857H28.1072V4.42857ZM28.1072 8.27381H29.1072V10.2836L27.5041 9.07147L28.1072 8.27381ZM19.8096 2L19.2038 1.20436L19.8075 0.744746L20.4127 1.20234L19.8096 2ZM2.00003 15.5595L1.2318 16.1997L0.562813 15.3969L1.39426 14.7639L2.00003 15.5595ZM3.01193 16.7738L3.61653 17.5703L2.85542 18.148L2.24371 17.414L3.01193 16.7738ZM4.0238 16.0058L3.4192 15.2092L5.0238 13.9913V16.0058H4.0238ZM4.0238 35.5952L3.0238 35.5953V35.5952H4.0238ZM4.02382 36V37H3.02388L3.02382 36.0001L4.02382 36ZM34.0919 36L34.0919 37H34.0919L34.0919 36ZM35.5953 36H36.5953V37L35.5953 37L35.5953 36ZM35.5953 15.9565H34.5953V13.8634L36.2236 15.1785L35.5953 15.9565ZM36.6072 16.7738L37.3754 17.414L36.7449 18.1705L35.9788 17.5518L36.6072 16.7738ZM5.5314 34.7857V35.7857H4.5262L4.53142 34.7805L5.5314 34.7857ZM5.63531 14.7826L4.63533 14.7774L4.63789 14.2842L5.03072 13.986L5.63531 14.7826ZM19.8096 4.02381L19.205 3.22728L19.808 2.76956L20.4122 3.22577L19.8096 4.02381ZM29.7262 11.5119H30.7262V13.5201L29.1236 12.3099L29.7262 11.5119ZM29.7262 6.25H28.7262V5.25H29.7262V6.25ZM31.1429 6.25V5.25H32.1112L32.1424 6.21776L31.1429 6.25ZM31.3453 12.5238L30.7169 13.3018L30.3606 13.0139L30.3458 12.5561L31.3453 12.5238ZM33.9829 14.6542L34.6113 13.8763L34.9805 14.1745L34.9829 14.6491L33.9829 14.6542ZM34.0857 34.7857L35.0856 34.7806L35.0908 35.7857H34.0857V34.7857ZM33.3619 11.1167L38.2191 14.7595L37.0191 16.3595L32.1619 12.7167L33.3619 11.1167ZM33.7619 4.42857V11.9167H31.7619V4.42857H33.7619ZM28.1072 3.42857H32.7619V5.42857H28.1072V3.42857ZM27.1072 8.27381V4.42857H29.1072V8.27381H27.1072ZM20.4127 1.20234L28.7103 7.47615L27.5041 9.07147L19.2064 2.79766L20.4127 1.20234ZM1.39426 14.7639L19.2038 1.20436L20.4153 2.79564L2.6058 16.3552L1.39426 14.7639ZM2.24371 17.414L1.2318 16.1997L2.76825 14.9193L3.78016 16.1336L2.24371 17.414ZM4.62839 16.8023L3.61653 17.5703L2.40734 15.9773L3.4192 15.2092L4.62839 16.8023ZM5.0238 16.0058V35.5952H3.0238V16.0058H5.0238ZM3.02382 36.0001L3.0238 35.5953L5.0238 35.5952L5.02382 35.9999L3.02382 36.0001ZM34.0919 37L4.02382 37V35L34.0919 35L34.0919 37ZM35.5953 37L34.0919 37L34.0918 35L35.5953 35L35.5953 37ZM36.5953 34.7857V36H34.5953V34.7857H36.5953ZM36.5953 15.9565V34.7857H34.5953V15.9565H36.5953ZM35.9788 17.5518L34.9669 16.7344L36.2236 15.1785L37.2355 15.9959L35.9788 17.5518ZM38.3873 16.1997L37.3754 17.414L35.839 16.1336L36.8509 14.9193L38.3873 16.1997ZM4.53142 34.7805L4.63533 14.7774L6.6353 14.7878L6.53139 34.7909L4.53142 34.7805ZM20.4142 4.82034L6.23991 15.5791L5.03072 13.986L19.205 3.22728L20.4142 4.82034ZM29.1236 12.3099L19.207 4.82185L20.4122 3.22577L30.3288 10.7139L29.1236 12.3099ZM30.7262 6.25V11.5119H28.7262V6.25H30.7262ZM31.1429 7.25H29.7262V5.25H31.1429V7.25ZM30.3458 12.5561L30.1434 6.28224L32.1424 6.21776L32.3447 12.4916L30.3458 12.5561ZM33.3546 15.4322L30.7169 13.3018L31.9736 11.7459L34.6113 13.8763L33.3546 15.4322ZM33.0857 34.7908L32.983 14.6593L34.9829 14.6491L35.0856 34.7806L33.0857 34.7908ZM5.5314 33.7857H34.0857V35.7857H5.5314V33.7857Z" fill="url(#paint1_linear)" mask="url(#path-1-outside-1)"/>
<g filter="url(#filter1_i)">
<path fill-rule="evenodd" clip-rule="evenodd" d="M5.23812 14.9524L19.7091 3.61906L29.5238 11.032L29.5238 6.04763H31.5476V12.5605L34.1786 14.5476L34.1786 34.7857L5.23809 34.9881V14.9524H5.23812Z" fill="#FCFCFC"/>
</g>
<path d="M14.6757 16.8298C14.6757 17.6745 15.3415 18.3617 16.16 18.3617C16.9785 18.3617 17.6444 17.6745 17.6444 16.8298C17.6444 15.9851 16.9785 15.2979 16.16 15.2979C15.3415 15.2979 14.6757 15.9851 14.6757 16.8298ZM16.9022 16.8298C16.9022 17.2521 16.5692 17.5957 16.16 17.5957C15.7508 17.5957 15.4178 17.2521 15.4178 16.8298C15.4178 16.4074 15.7508 16.0638 16.16 16.0638C16.5692 16.0638 16.9022 16.4074 16.9022 16.8298Z" fill="url(#paint2_linear)"/>
<path d="M12.4492 16.8298C12.4492 18.9416 14.1138 20.6596 16.16 20.6596C17.6409 20.6596 18.9761 19.7467 19.5621 18.3617H26.402C26.4596 18.3617 26.5164 18.3479 26.5679 18.3212L28.7944 17.1723C28.9011 17.1172 28.9757 17.0126 28.9948 16.8911C29.0138 16.7696 28.9752 16.646 28.8909 16.5589L26.6644 14.2611C26.5194 14.1116 26.2845 14.1116 26.1395 14.2611L25.2887 15.1392L24.4378 14.2611C24.2929 14.1116 24.058 14.1116 23.913 14.2611L23.0622 15.1392L22.2113 14.2611C22.0664 14.1116 21.8315 14.1116 21.6865 14.2611L20.6819 15.2979H19.562C18.9761 13.9128 17.6409 13 16.16 13C14.1138 13 12.4492 14.718 12.4492 16.8298ZM18.9599 15.8085C19.0123 15.9615 19.1525 16.0638 19.3098 16.0638H20.8357C20.9341 16.0638 21.0285 16.0235 21.0981 15.9516L21.9489 15.0736L22.7998 15.9517C22.9447 16.1012 23.1796 16.1012 23.3246 15.9517L24.1754 15.0736L25.0263 15.9517C25.1713 16.1012 25.4061 16.1012 25.5511 15.9517L26.402 15.0736L28.002 16.7249L26.3143 17.5957H19.3098C19.1525 17.5957 19.0123 17.698 18.9599 17.8511C18.5414 19.0728 17.4162 19.8936 16.16 19.8936C14.5231 19.8936 13.1913 18.5192 13.1913 16.8298C13.1913 15.1404 14.5231 13.766 16.16 13.766C17.4162 13.766 18.5414 14.5868 18.9599 15.8085Z" fill="url(#paint3_linear)"/>
<path d="M24.5465 28.0128C24.7515 28.0128 24.9176 27.8413 24.9176 27.6298C24.9176 27.4182 24.7515 27.2468 24.5465 27.2468C24.3416 27.2468 24.1754 27.4182 24.1754 27.6298C24.1754 27.8413 24.3416 28.0128 24.5465 28.0128Z" fill="url(#paint4_linear)"/>
<path d="M25.3804 23.6241L23.2562 25.0789C22.9983 24.6105 22.5099 24.2978 21.9653 24.2978H20.1588C19.9751 24.2978 19.8009 24.2316 19.6684 24.1113L19.4069 23.8741C18.0096 22.6046 15.9018 22.6045 14.5041 23.874L13.9422 24.3841L12.9687 25.0943V24.8724C12.9687 24.6609 12.8025 24.4894 12.5976 24.4894H10.3711C10.1662 24.4894 10 24.6609 10 24.8724V30.617C10 30.8285 10.1662 31 10.3711 31H12.5976C12.8025 31 12.9687 30.8285 12.9687 30.617V29.6596H14.1354L20.5397 30.9925C20.564 30.9975 20.5885 31 20.613 31C20.6915 31 20.7687 30.9743 20.8329 30.9255L23.4223 28.9599C23.5873 28.8346 23.6227 28.5948 23.5013 28.4244C23.3799 28.2541 23.1476 28.2176 22.9825 28.3429L20.5255 30.2081L14.2458 28.9012C14.2217 28.8962 14.1971 28.8937 14.1725 28.8937H12.9687V26.0324C14.554 24.8749 14.2817 25.1111 14.9943 24.4491C16.1125 23.4335 17.7986 23.4335 18.9167 24.4492L19.1782 24.6865C19.4463 24.9299 19.7945 25.0639 20.1588 25.0639H21.9653C22.3731 25.0639 22.7075 25.412 22.7075 25.834C22.7075 26.2541 22.3745 26.5958 21.9653 26.5958H17.5123C17.3074 26.5958 17.1412 26.7673 17.1412 26.9788C17.1412 27.1903 17.3074 27.3617 17.5123 27.3617H21.9653C22.7732 27.3617 23.432 26.6938 23.4489 25.8664L25.7897 24.2632C26.5254 23.7632 27.4715 23.8665 28.0865 24.4683L25.6719 26.3012C25.5069 26.4266 25.4715 26.6663 25.5929 26.8367C25.7143 27.007 25.9465 27.0436 26.1117 26.9183L28.8488 24.8404C29.0119 24.7165 29.0487 24.4805 28.9314 24.31C28.1162 23.1263 26.557 22.8246 25.3804 23.6241ZM12.2265 30.234H10.7422V25.2553H12.2265V30.234Z" fill="url(#paint5_linear)"/>
<defs>
<filter id="filter0_i" x="0.562805" y="0.744751" width="39.4983" height="38.2553" filterUnits="userSpaceOnUse" color-interpolation-filters="sRGB">
<feFlood flood-opacity="0" result="BackgroundImageFix"/>
<feBlend mode="normal" in="SourceGraphic" in2="BackgroundImageFix" result="shape"/>
<feColorMatrix in="SourceAlpha" type="matrix" values="0 0 0 0 0 0 0 0 0 0 0 0 0 0 0 0 0 0 127 0" result="hardAlpha"/>
<feOffset dx="1" dy="2"/>
<feGaussianBlur stdDeviation="8"/>
<feComposite in2="hardAlpha" operator="arithmetic" k2="-1" k3="1"/>
<feColorMatrix type="matrix" values="0 0 0 0 0 0 0 0 0 0 0 0 0 0 0 0 0 0 0.25 0"/>
<feBlend mode="normal" in2="shape" result="effect1_innerShadow"/>
</filter>
<filter id="filter1_i" x="5.2381" y="3.61906" width="28.9405" height="33.369" filterUnits="userSpaceOnUse" color-interpolation-filters="sRGB">
<feFlood flood-opacity="0" result="BackgroundImageFix"/>
<feBlend mode="normal" in="SourceGraphic" in2="BackgroundImageFix" result="shape"/>
<feColorMatrix in="SourceAlpha" type="matrix" values="0 0 0 0 0 0 0 0 0 0 0 0 0 0 0 0 0 0 127 0" result="hardAlpha"/>
<feOffset dy="2"/>
<feGaussianBlur stdDeviation="3.5"/>
<feComposite in2="hardAlpha" operator="arithmetic" k2="-1" k3="1"/>
<feColorMatrix type="matrix" values="0 0 0 0 0 0 0 0 0 0 0 0 0 0 0 0 0 0 0.25 0"/>
<feBlend mode="normal" in2="shape" result="effect1_innerShadow"/>
</filter>
<linearGradient id="paint0_linear" x1="19.8096" y1="2" x2="34.1786" y2="33.7738" gradientUnits="userSpaceOnUse">
<stop stop-color="#3999B6"/>
<stop offset="0.755208" stop-color="#145367"/>
<stop offset="1" stop-color="#879BA2"/>
</linearGradient>
<linearGradient id="paint1_linear" x1="19.8096" y1="2" x2="19.8096" y2="36" gradientUnits="userSpaceOnUse">
<stop stop-color="white"/>
<stop offset="1" stop-color="#D9D9D9"/>
</linearGradient>
<linearGradient id="paint2_linear" x1="17.5" y1="14.5" x2="28.5" y2="29.5" gradientUnits="userSpaceOnUse">
<stop stop-color="#216479"/>
<stop offset="1" stop-color="#D2D7D9"/>
</linearGradient>
<linearGradient id="paint3_linear" x1="17.5" y1="14.5" x2="28.5" y2="29.5" gradientUnits="userSpaceOnUse">
<stop stop-color="#216479"/>
<stop offset="1" stop-color="#D2D7D9"/>
</linearGradient>
<linearGradient id="paint4_linear" x1="17.5" y1="14.5" x2="28.5" y2="29.5" gradientUnits="userSpaceOnUse">
<stop stop-color="#216479"/>
<stop offset="1" stop-color="#D2D7D9"/>
</linearGradient>
<linearGradient id="paint5_linear" x1="17.5" y1="14.5" x2="28.5" y2="29.5" gradientUnits="userSpaceOnUse">
<stop stop-color="#216479"/>
<stop offset="1" stop-color="#D2D7D9"/>
</linearGradient>
</defs>
</svg>
